<?xml version="1.0" encoding="iso-8859-1"?>
<!-- Uploaded to: SVG Repo, www.svgrepo.com, Generator: SVG Repo Mixer Tools -->
<svg fill="#000000" height="800px" width="800px" version="1.1" id="Layer_1" xmlns="http://www.w3.org/2000/svg" xmlns:xlink="http://www.w3.org/1999/xlink" 
	 viewBox="0 0 512 512" xml:space="preserve">
<g>
	<g>
		<g>
			<path d="M256,32.337c-69.837,0-126.653,56.816-126.653,126.653S186.163,285.642,256,285.642s126.653-56.816,126.653-126.653
				S325.837,32.337,256,32.337z M256,269.474c-60.922,0-110.484-49.563-110.484-110.484c0-60.922,49.563-110.484,110.484-110.484
				s110.484,49.563,110.484,110.484C366.484,219.911,316.922,269.474,256,269.474z"/>
			<path d="M414.989,158.989C414.989,71.322,343.667,0,256,0S97.011,71.322,97.011,158.989c0,77.538,55.799,142.291,129.347,156.219
				v30.839c-12.428,3.527-21.558,14.978-21.558,28.521v107.789c0,16.345,13.297,29.642,29.642,29.642h43.116
				c16.345,0,29.642-13.297,29.642-29.642V374.568c0-13.544-9.13-24.994-21.558-28.521v-30.839
				C359.19,301.28,414.989,236.528,414.989,158.989z M291.032,374.568v107.789c0,7.43-6.044,13.474-13.474,13.474h-43.116
				c-7.43,0-13.474-6.044-13.474-13.474V374.568c0-7.43,6.044-13.474,13.474-13.474h43.116
				C284.988,361.095,291.032,367.138,291.032,374.568z M242.526,344.926v-27.513c8.884,0.749,18.063,0.749,26.947,0v27.513H242.526z
				 M276.661,300.32c-0.177,0.019-0.351,0.045-0.524,0.075c-6.582,0.933-13.302,1.415-20.137,1.415
				c-6.835,0-13.556-0.482-20.137-1.415c-0.172-0.03-0.347-0.056-0.524-0.075c-69-10.037-122.16-69.591-122.16-141.33
				c0-78.752,64.069-142.821,142.821-142.821s142.821,64.069,142.821,142.821C398.821,230.729,345.661,290.282,276.661,300.32z"/>
			<path d="M331.453,192.943c-4.465,0-8.084,3.62-8.084,8.084v1.078c0,4.465,3.62,8.084,8.084,8.084s8.084-3.62,8.084-8.084v-1.078
				C339.537,196.563,335.917,192.943,331.453,192.943z"/>
			<path d="M256,64.674c-4.465,0-8.084,3.62-8.084,8.084c0,4.465,3.62,8.084,8.084,8.084c43.091,0,78.147,35.056,78.147,78.147
				c0,4.465,3.62,8.084,8.084,8.084c4.465,0,8.084-3.62,8.084-8.084C350.316,106.983,308.006,64.674,256,64.674z"/>
		</g>
	</g>
</g>
</svg>