<svg width="999.9999999999991" height="999.9999999999991" xmlns="http://www.w3.org/2000/svg">
 <!-- Created with ImageBot - http://www.imagebot.com/ -->
 <g id="imagebot_1">
  <title>Layer 1</title>
  <g transform="translate(-1.95312 -13.6719) matrix(1.01105 0 0 -1.06218 -0.932114 1012.54)" id="imagebot_17">
   <line y2="186" x2="98" y1="186" x1="22" transform="translate(-65.92 -1.92) matrix(1 0 0 1 138.305 -158.294)" stroke-width="20" stroke-linejoin="round" stroke-linecap="round" stroke="#000000" fill="none" id="imagebot_20"/>
   <line y2="186" x2="98" y1="186" x1="22" transform="translate(122.24 0.64) matrix(1 0 0 1 72.385 -160.214)" stroke-width="20" stroke-linejoin="round" stroke-linecap="round" stroke="#000000" fill="none" id="imagebot_7"/>
   <line y2="186" x2="98" y1="186" x1="22" transform="translate(245.76 0.64) matrix(1 0 0 1 72.385 -160.214)" stroke-width="20" stroke-linejoin="round" stroke-linecap="round" stroke="#000000" fill="none" id="imagebot_8"/>
   <line y2="186" x2="98" y1="186" x1="22" transform="translate(374.4 0.64) matrix(1 0 0 1 72.385 -160.214)" stroke-width="20" stroke-linejoin="round" stroke-linecap="round" stroke="#000000" fill="none" id="imagebot_9"/>
   <line y2="186" x2="98" y1="186" x1="22" transform="rotate(15.5506 635.425 44.346) matrix(1 0 0 1 575.425 -141.654)" stroke-width="20" stroke-linejoin="round" stroke-linecap="round" stroke="#000000" fill="none" id="imagebot_10"/>
   <line y2="186" x2="98" y1="186" x1="22" transform="rotate(32.926 748.705 96.826) matrix(1 0 0 1 688.705 -89.174)" stroke-width="20" stroke-linejoin="round" stroke-linecap="round" stroke="#000000" fill="none" id="imagebot_11"/>
   <line y2="186" x2="98" y1="186" x1="22" transform="rotate(47.4383 842.785 178.746) matrix(1 0 0 1 782.785 -7.254)" stroke-width="20" stroke-linejoin="round" stroke-linecap="round" stroke="#000000" fill="none" id="imagebot_12"/>
   <line y2="186" x2="98" y1="186" x1="22" transform="rotate(61.7224 909.985 281.146) matrix(1 0 0 1 849.985 95.146)" stroke-width="20" stroke-linejoin="round" stroke-linecap="round" stroke="#000000" fill="none" id="imagebot_13"/>
   <line y2="186" x2="98" y1="186" x1="22" transform="rotate(77.7474 950.305 398.266) matrix(1 0 0 1 890.305 212.266)" stroke-width="20" stroke-linejoin="round" stroke-linecap="round" stroke="#000000" fill="none" id="imagebot_14"/>
   <line y2="186" x2="98" y1="186" x1="22" transform="rotate(89.7469 960.545 521.786) matrix(1 0 0 1 900.545 335.786)" stroke-width="20" stroke-linejoin="round" stroke-linecap="round" stroke="#000000" fill="none" id="imagebot_15"/>
  </g>
 </g>
</svg>